<?xml version="1.0" encoding="UTF-8"?>
<svg version="1.1" xmlns="http://www.w3.org/2000/svg" width="645" height="387">
<path d="M0 0 C212.85 0 425.7 0 645 0 C645 127.71 645 255.42 645 387 C432.15 387 219.3 387 0 387 C0 259.29 0 131.58 0 0 Z " fill="#FEFEFE" transform="translate(0,0)"/>
<path d="M0 0 C36.63 0 73.26 0 111 0 C111 7.26 111 14.52 111 22 C118.26 22 125.52 22 133 22 C133 58.63 133 95.26 133 133 C125.74 133 118.48 133 111 133 C111 140.26 111 147.52 111 155 C74.37 155 37.74 155 0 155 C0 147.74 0 140.48 0 133 C-7.26 133 -14.52 133 -22 133 C-22 96.37 -22 59.74 -22 22 C-14.74 22 -7.48 22 0 22 C0 14.74 0 7.48 0 0 Z " fill="#FEFEFE" transform="translate(267,116)"/>
<path d="M0 0 C14.52 0 29.04 0 44 0 C44 29.37 44 58.74 44 89 C51.26 89 58.52 89 66 89 C66 96.26 66 103.52 66 111 C58.74 111 51.48 111 44 111 C44 125.52 44 140.04 44 155 C36.74 155 29.48 155 22 155 C22 140.48 22 125.96 22 111 C-14.63 111 -51.26 111 -89 111 C-89 103.74 -89 96.48 -89 89 C-81.74 89 -74.48 89 -67 89 C-67 81.41 -67 73.82 -67 66 C-59.74 66 -52.48 66 -45 66 C-45 73.59 -45 81.18 -45 89 C-22.89 89 -0.78 89 22 89 C22 66.89 22 44.78 22 22 C14.74 22 7.48 22 0 22 C0 14.74 0 7.48 0 0 Z " fill="#434344" transform="translate(512,116)"/>
<path d="M0 0 C14.52 0 29.04 0 44 0 C44 29.37 44 58.74 44 89 C51.26 89 58.52 89 66 89 C66 96.26 66 103.52 66 111 C58.74 111 51.48 111 44 111 C44 125.52 44 140.04 44 155 C36.74 155 29.48 155 22 155 C22 140.48 22 125.96 22 111 C-14.63 111 -51.26 111 -89 111 C-89 103.74 -89 96.48 -89 89 C-81.74 89 -74.48 89 -67 89 C-67 81.74 -67 74.48 -67 67 C-59.74 67 -52.48 67 -45 67 C-45 74.26 -45 81.52 -45 89 C-22.89 89 -0.78 89 22 89 C22 66.89 22 44.78 22 22 C14.74 22 7.48 22 0 22 C0 14.74 0 7.48 0 0 Z " fill="#424244" transform="translate(156,116)"/>
<path d="M0 0 C36.63 0 73.26 0 111 0 C111 7.26 111 14.52 111 22 C74.37 22 37.74 22 0 22 C0 14.74 0 7.48 0 0 Z " fill="#444446" transform="translate(267,249)"/>
<path d="M0 0 C7.26 0 14.52 0 22 0 C22 36.63 22 73.26 22 111 C14.74 111 7.48 111 0 111 C0 74.37 0 37.74 0 0 Z " fill="#444446" transform="translate(378,138)"/>
<path d="M0 0 C7.26 0 14.52 0 22 0 C22 36.63 22 73.26 22 111 C14.74 111 7.48 111 0 111 C0 74.37 0 37.74 0 0 Z " fill="#444446" transform="translate(245,138)"/>
<path d="M0 0 C36.63 0 73.26 0 111 0 C111 7.26 111 14.52 111 22 C74.37 22 37.74 22 0 22 C0 14.74 0 7.48 0 0 Z " fill="#444446" transform="translate(267,116)"/>
<path d="M0 0 C22.11 0 44.22 0 67 0 C67 7.26 67 14.52 67 22 C44.89 22 22.78 22 0 22 C0 14.74 0 7.48 0 0 Z " fill="#454547" transform="translate(289,205)"/>
<path d="M0 0 C6.6 0 13.2 0 20 0 C20 0.99 20 1.98 20 3 C20.99 3 21.98 3 23 3 C23 8.61 23 14.22 23 20 C22.01 20 21.02 20 20 20 C20 21.32 20 22.64 20 24 C13.4 24 6.8 24 0 24 C0 16.08 0 8.16 0 0 Z " fill="#F1F1F1" transform="translate(463,318)"/>
<path d="M0 0 C5.61 0 11.22 0 17 0 C17 0.99 17 1.98 17 3 C18.32 3 19.64 3 21 3 C21 8.61 21 14.22 21 20 C19.68 20 18.36 20 17 20 C17 20.99 17 21.98 17 23 C11.39 23 5.78 23 0 23 C0 22.01 0 21.02 0 20 C-0.99 20 -1.98 20 -3 20 C-3 14.39 -3 8.78 -3 3 C-2.01 3 -1.02 3 0 3 C0 2.01 0 1.02 0 0 Z " fill="#FDFDFD" transform="translate(352,46)"/>
<path d="M0 0 C7.26 0 14.52 0 22 0 C22 7.26 22 14.52 22 22 C14.74 22 7.48 22 0 22 C0 14.74 0 7.48 0 0 Z " fill="#474748" transform="translate(334,160)"/>
<path d="M0 0 C7.26 0 14.52 0 22 0 C22 7.26 22 14.52 22 22 C14.74 22 7.48 22 0 22 C0 14.74 0 7.48 0 0 Z " fill="#474749" transform="translate(289,160)"/>
<path d="M0 0 C7.26 0 14.52 0 22 0 C22 7.26 22 14.52 22 22 C14.74 22 7.48 22 0 22 C0 14.74 0 7.48 0 0 Z " fill="#454547" transform="translate(111,160)"/>
<path d="M0 0 C7.26 0 14.52 0 22 0 C22 7.26 22 14.52 22 22 C14.74 22 7.48 22 0 22 C0 14.74 0 7.48 0 0 Z " fill="#444446" transform="translate(133,138)"/>
<path d="M0 0 C7.26 0 14.52 0 22 0 C22 7.26 22 14.52 22 22 C14.74 22 7.48 22 0 22 C0 14.74 0 7.48 0 0 Z " fill="#444446" transform="translate(490,138)"/>
<path d="M0 0 C6.93 0 13.86 0 21 0 C21 6.93 21 13.86 21 21 C14.07 21 7.14 21 0 21 C0 14.07 0 7.14 0 0 Z " fill="#414142" transform="translate(468,161)"/>
<path d="M0 0 C6.6 0 13.2 0 20 0 C20 0.99 20 1.98 20 3 C20.99 3 21.98 3 23 3 C23.20413361 8.73842251 23.27141454 13.60539047 21 19 C21.66 19 22.32 19 23 19 C23 20.32 23 21.64 23 23 C22.01 23 21.02 23 20 23 C20 22.01 20 21.02 20 20 C19.01 20 18.02 20 17 20 C17 18.68 17 17.36 17 16 C12.38 16 7.76 16 3 16 C3 18.31 3 20.62 3 23 C2.01 23 1.02 23 0 23 C0 15.41 0 7.82 0 0 Z " fill="#F9F9F9" transform="translate(269,46)"/>
<path d="M0 0 C6.6 0 13.2 0 20 0 C20 0.99 20 1.98 20 3 C20.99 3 21.98 3 23 3 C23 6.3 23 9.6 23 13 C22.01 13 21.02 13 20 13 C20 14.98 20 16.96 20 19 C20.99 19 21.98 19 23 19 C23 20.32 23 21.64 23 23 C22.01 23 21.02 23 20 23 C20 22.01 20 21.02 20 20 C19.01 20 18.02 20 17 20 C17 18.68 17 17.36 17 16 C12.38 16 7.76 16 3 16 C3 18.31 3 20.62 3 23 C2.01 23 1.02 23 0 23 C0 15.41 0 7.82 0 0 Z " fill="#505050" transform="translate(309,46)"/>
<path d="M0 0 C6.6 0 13.2 0 20 0 C20 0.99 20 1.98 20 3 C20.99 3 21.98 3 23 3 C23 6.3 23 9.6 23 13 C22.01 13 21.02 13 20 13 C20 15.31 20 17.62 20 20 C20.99 20 21.98 20 23 20 C23 20.99 23 21.98 23 23 C21.68 23 20.36 23 19 23 C19 22.01 19 21.02 19 20 C18.01 20 17.02 20 16 20 C16 18.68 16 17.36 16 16 C11.38 16 6.76 16 2 16 C2 18.31 2 20.62 2 23 C1.34 23 0.68 23 0 23 C0 15.41 0 7.82 0 0 Z " fill="#424242" transform="translate(390,46)"/>
<path d="M0 0 C5.61 0 11.22 0 17 0 C17 0.99 17 1.98 17 3 C17.99 3 18.98 3 20 3 C20 8.61 20 14.22 20 20 C19.01 20 18.02 20 17 20 C17 20.99 17 21.98 17 23 C11.39 23 5.78 23 0 23 C0 22.01 0 21.02 0 20 C-0.99 20 -1.98 20 -3 20 C-3 14.39 -3 8.78 -3 3 C-2.01 3 -1.02 3 0 3 C0 2.01 0 1.02 0 0 Z M1 4 C1 9.28 1 14.56 1 20 C6.28 20 11.56 20 17 20 C17 14.72 17 9.44 17 4 C11.72 4 6.44 4 1 4 Z " fill="#999999" transform="translate(202,318)"/>
<path d="M0 0 C6.6 0 13.2 0 20 0 C20 1.32 20 2.64 20 4 C14.39 4 8.78 4 3 4 C3.33 5.98 3.66 7.96 4 10 C9.28 10.33 14.56 10.66 20 11 C20 11.66 20 12.32 20 13 C12.08 13.495 12.08 13.495 4 14 C3.67 16.31 3.34 18.62 3 21 C8.61 21 14.22 21 20 21 C20 21.99 20 22.98 20 24 C13.4 24 6.8 24 0 24 C0 16.08 0 8.16 0 0 Z " fill="#424242" transform="translate(232,45)"/>
<path d="M0 0 C6.6 0 13.2 0 20 0 C20 0.99 20 1.98 20 3 C14.39 3 8.78 3 3 3 C3 6.3 3 9.6 3 13 C8.61 13 14.22 13 20 13 C20 14.98 20 16.96 20 19 C19.01 19 18.02 19 17 19 C17 18.01 17 17.02 17 16 C12.38 16 7.76 16 3 16 C3 18.31 3 20.62 3 23 C2.01 23 1.02 23 0 23 C0 15.41 0 7.82 0 0 Z " fill="#555555" transform="translate(269,46)"/>
<path d="M0 0 C5.61 0 11.22 0 17 0 C17 0.99 17 1.98 17 3 C11.72 3 6.44 3 1 3 C1 8.61 1 14.22 1 20 C6.28 20 11.56 20 17 20 C17 20.99 17 21.98 17 23 C11.39 23 5.78 23 0 23 C0 22.01 0 21.02 0 20 C-0.99 20 -1.98 20 -3 20 C-3 14.39 -3 8.78 -3 3 C-2.01 3 -1.02 3 0 3 C0 2.01 0 1.02 0 0 Z " fill="#858585" transform="translate(352,46)"/>
<path d="M0 0 C6.6 0 13.2 0 20 0 C20 0.99 20 1.98 20 3 C14.39 3 8.78 3 3 3 C3 5.64 3 8.28 3 11 C8.61 11 14.22 11 20 11 C20 11.66 20 12.32 20 13 C14.39 13 8.78 13 3 13 C3 16.3 3 19.6 3 23 C2.01 23 1.02 23 0 23 C0 15.41 0 7.82 0 0 Z " fill="#434343" transform="translate(306,318)"/>
<path d="M0 0 C6.6 0 13.2 0 20 0 C20 0.99 20 1.98 20 3 C14.39 3 8.78 3 3 3 C3 8.94 3 14.88 3 21 C8.28 21 13.56 21 19 21 C19 21.66 19 22.32 19 23 C12.73 23 6.46 23 0 23 C0 15.41 0 7.82 0 0 Z " fill="#434343" transform="translate(463,318)"/>
<path d="M0 0 C5.28 0 10.56 0 16 0 C16 2.97 16 5.94 16 9 C10.72 9 5.44 9 0 9 C0 6.03 0 3.06 0 0 Z " fill="#FFFFFF" transform="translate(393,49)"/>
<path d="M0 0 C5.28 0 10.56 0 16 0 C16 2.97 16 5.94 16 9 C10.72 9 5.44 9 0 9 C0 6.03 0 3.06 0 0 Z " fill="#FFFFFF" transform="translate(313,49)"/>
<path d="M0 0 C1.32 0 2.64 0 4 0 C4 6.6 4 13.2 4 20 C3.01 20 2.02 20 1 20 C1 20.99 1 21.98 1 23 C-4.61 23 -10.22 23 -16 23 C-16 22.01 -16 21.02 -16 20 C-10.72 20 -5.44 20 0 20 C0 13.4 0 6.8 0 0 Z " fill="#858585" transform="translate(402,318)"/>
<path d="M0 0 C7.59 0 15.18 0 23 0 C23 0.99 23 1.98 23 3 C19.7 3 16.4 3 13 3 C13 9.6 13 16.2 13 23 C12.01 23 11.02 23 10 23 C10 16.4 10 9.8 10 3 C6.7 3 3.4 3 0 3 C0 2.01 0 1.02 0 0 Z " fill="#4E4E4E" transform="translate(239,318)"/>
<path d="M0 0 C1.32 0 2.64 0 4 0 C4 5.61 4 11.22 4 17 C3.01 17 2.02 17 1 17 C1 17.99 1 18.98 1 20 C-4.61 20 -10.22 20 -16 20 C-16 19.01 -16 18.02 -16 17 C-10.72 17 -5.44 17 0 17 C0 11.39 0 5.78 0 0 Z " fill="#7F7F7F" transform="translate(362,321)"/>
<path d="M0 0 C0.33 0.99 0.66 1.98 1 3 C1.99 3 2.98 3 4 3 C4 6.3 4 9.6 4 13 C3.01 13 2.02 13 1 13 C1 15.31 1 17.62 1 20 C1.99 20 2.98 20 4 20 C4 20.99 4 21.98 4 23 C2.68 23 1.36 23 0 23 C0 22.01 0 21.02 0 20 C-0.99 19.67 -1.98 19.34 -3 19 C-2.01 19 -1.02 19 0 19 C0 17.02 0 15.04 0 13 C-5.61 13 -11.22 13 -17 13 C-17.09765625 5.28515625 -17.09765625 5.28515625 -17 3 C-16 2 -16 2 -12.40234375 1.90234375 C-10.91403133 1.9090178 -9.42573568 1.92097817 -7.9375 1.9375 C-7.17888672 1.94201172 -6.42027344 1.94652344 -5.63867188 1.95117188 C-3.75908129 1.9629932 -1.87953101 1.98092922 0 2 C0 1.34 0 0.68 0 0 Z M-16 3 C-16 5.97 -16 8.94 -16 12 C-10.72 12 -5.44 12 0 12 C0 9.03 0 6.06 0 3 C-5.28 3 -10.56 3 -16 3 Z " fill="#B6B6B6" transform="translate(409,46)"/>
<path d="M0 0 C6.6 0 13.2 0 20 0 C20 1.32 20 2.64 20 4 C14.39 4 8.78 4 3 4 C3 3.01 3 2.02 3 1 C2.34 1 1.68 1 1 1 C1 8.59 1 16.18 1 24 C0.67 24 0.34 24 0 24 C0 16.08 0 8.16 0 0 Z " fill="#787878" transform="translate(232,45)"/>
<path d="M0 0 C0.33 1.32 0.66 2.64 1 4 C6.61 4 12.22 4 18 4 C18 5.98 18 7.96 18 10 C17.01 10 16.02 10 15 10 C15 9.01 15 8.02 15 7 C10.38 7 5.76 7 1 7 C1 8.98 1 10.96 1 13 C0.34 13 -0.32 13 -1 13 C-1.0272415 11.58344207 -1.04650467 10.16672955 -1.0625 8.75 C-1.07410156 7.96109375 -1.08570313 7.1721875 -1.09765625 6.359375 C-1.00385306 4.09308998 -0.63241063 2.1711105 0 0 Z " fill="#4B4B4B" transform="translate(271,55)"/>
<path d="M0 0 C0.99 0 1.98 0 3 0 C3 7.59 3 15.18 3 23 C2.01 23 1.02 23 0 23 C0 22.01 0 21.02 0 20 C-0.99 20 -1.98 20 -3 20 C-3 19.01 -3 18.02 -3 17 C-2.01 17 -1.02 17 0 17 C0 11.39 0 5.78 0 0 Z " fill="#4B4B4B" transform="translate(443,318)"/>
<path d="M0 0 C0.99 0 1.98 0 3 0 C3 7.59 3 15.18 3 23 C2.01 23 1.02 23 0 23 C0 22.01 0 21.02 0 20 C-0.99 20 -1.98 20 -3 20 C-3 19.01 -3 18.02 -3 17 C-2.01 17 -1.02 17 0 17 C0 11.39 0 5.78 0 0 Z " fill="#464646" transform="translate(179,318)"/>
<path d="M0 0 C0.99 0 1.98 0 3 0 C3 1.32 3 2.64 3 4 C3.99 4 4.98 4 6 4 C6 4.99 6 5.98 6 7 C5.01 7 4.02 7 3 7 C3 12.28 3 17.56 3 23 C2.01 23 1.02 23 0 23 C0 15.41 0 7.82 0 0 Z " fill="#474748" transform="translate(423,318)"/>
<path d="M0 0 C0.99 0 1.98 0 3 0 C3 1.32 3 2.64 3 4 C3.99 4 4.98 4 6 4 C6 4.99 6 5.98 6 7 C5.01 7 4.02 7 3 7 C3 12.28 3 17.56 3 23 C2.01 23 1.02 23 0 23 C0 15.41 0 7.82 0 0 Z " fill="#494949" transform="translate(159,318)"/>
<path d="M0 0 C6.6 0 13.2 0 20 0 C20 0.99 20 1.98 20 3 C14.39 3 8.78 3 3 3 C3 5.31 3 7.62 3 10 C1.5 8.9375 1.5 8.9375 0 7 C0 4.69 0 2.38 0 0 Z " fill="#4C4C4C" transform="translate(306,318)"/>
<path d="M0 0 C2.7708983 -0.02696009 5.5415345 -0.04681952 8.3125 -0.0625 C9.09818359 -0.07087891 9.88386719 -0.07925781 10.69335938 -0.08789062 C11.45068359 -0.09111328 12.20800781 -0.09433594 12.98828125 -0.09765625 C13.68477783 -0.10289307 14.38127441 -0.10812988 15.09887695 -0.11352539 C17 0 17 0 20 1 C20 4.3 20 7.6 20 11 C13.4 11 6.8 11 0 11 C0 7.37 0 3.74 0 0 Z M1 1 C1 3.97 1 6.94 1 10 C6.28 10 11.56 10 17 10 C17 7.03 17 4.06 17 1 C11.72 1 6.44 1 1 1 Z " fill="#9E9E9E" transform="translate(312,48)"/>
<path d="M0 0 C6.6 0 13.2 0 20 0 C20 0.99 20 1.98 20 3 C14.39 3 8.78 3 3 3 C2.67 4.65 2.34 6.3 2 8 C1.67 8 1.34 8 1 8 C0.67 5.36 0.34 2.72 0 0 Z " fill="#4E4E4E" transform="translate(463,318)"/>
<path d="M0 0 C1.32 0 2.64 0 4 0 C4 5.61 4 11.22 4 17 C2.68 17 1.36 17 0 17 C0 11.39 0 5.78 0 0 Z " fill="#777777" transform="translate(369,49)"/>
<path d="M0 0 C5.28 0 10.56 0 16 0 C16 1.98 16 3.96 16 6 C16.99 6 17.98 6 19 6 C19 7.32 19 8.64 19 10 C18.01 10 17.02 10 16 10 C16 9.01 16 8.02 16 7 C15.01 7 14.02 7 13 7 C13 5.68 13 4.36 13 3 C8.71 3 4.42 3 0 3 C0 2.01 0 1.02 0 0 Z " fill="#4F4F4F" transform="translate(313,59)"/>
<path d="M0 0 C0.99 0 1.98 0 3 0 C3 6.6 3 13.2 3 20 C2.01 20 1.02 20 0 20 C0 13.4 0 6.8 0 0 Z " fill="#4B4B4C" transform="translate(383,318)"/>
<path d="M0 0 C0.99 0 1.98 0 3 0 C3 6.6 3 13.2 3 20 C2.01 20 1.02 20 0 20 C0 13.4 0 6.8 0 0 Z " fill="#525252" transform="translate(403,318)"/>
<path d="M0 0 C6.27 0 12.54 0 19 0 C19 0.66 19 1.32 19 2 C13.39 2 7.78 2 2 2 C2 4.64 2 7.28 2 10 C1.34 10.66 0.68 11.32 0 12 C0 8.04 0 4.08 0 0 Z " fill="#414141" transform="translate(310,46)"/>
<path d="M0 0 C0.99 0 1.98 0 3 0 C3 5.28 3 10.56 3 16 C2.01 16 1.02 16 0 16 C0 10.72 0 5.44 0 0 Z " fill="#525252" transform="translate(343,322)"/>
<path d="M0 0 C0.99 0 1.98 0 3 0 C3 5.28 3 10.56 3 16 C2.01 16 1.02 16 0 16 C0 10.72 0 5.44 0 0 Z " fill="#444444" transform="translate(219,322)"/>
<path d="M0 0 C0.99 0 1.98 0 3 0 C3 5.28 3 10.56 3 16 C2.01 16 1.02 16 0 16 C0 10.72 0 5.44 0 0 Z " fill="#494949" transform="translate(199,322)"/>
<path d="M0 0 C0.99 0 1.98 0 3 0 C3 5.28 3 10.56 3 16 C2.01 16 1.02 16 0 16 C0 10.72 0 5.44 0 0 Z " fill="#464646" transform="translate(483,322)"/>
<path d="M0 0 C0.99 0 1.98 0 3 0 C3 5.28 3 10.56 3 16 C2.01 16 1.02 16 0 16 C0 10.72 0 5.44 0 0 Z " fill="#434343" transform="translate(363,322)"/>
<path d="M0 0 C5.28 0 10.56 0 16 0 C16 0.99 16 1.98 16 3 C10.72 3 5.44 3 0 3 C0 2.01 0 1.02 0 0 Z " fill="#4D4D4D" transform="translate(346,318)"/>
<path d="M0 0 C5.28 0 10.56 0 16 0 C16 0.99 16 1.98 16 3 C10.72 3 5.44 3 0 3 C0 2.01 0 1.02 0 0 Z " fill="#4E4E4E" transform="translate(203,318)"/>
<path d="M0 0 C5.28 0 10.56 0 16 0 C16 0.99 16 1.98 16 3 C10.72 3 5.44 3 0 3 C0 2.01 0 1.02 0 0 Z " fill="#4C4C4C" transform="translate(353,66)"/>
<path d="M0 0 C1.46513058 0.01988865 2.93011492 0.05558907 4.39453125 0.10546875 C5.14412109 0.11900391 5.89371094 0.13253906 6.66601562 0.14648438 C8.51332892 0.18178336 10.36027191 0.23558958 12.20703125 0.29296875 C12.20703125 1.28296875 12.20703125 2.27296875 12.20703125 3.29296875 C5.93703125 3.29296875 -0.33296875 3.29296875 -6.79296875 3.29296875 C-3.79296875 0.29296875 -3.79296875 0.29296875 0 0 Z " fill="#4E4E4E" transform="translate(239.79296875,65.70703125)"/>
<path d="M0 0 C0.99 0 1.98 0 3 0 C3 5.28 3 10.56 3 16 C2.01 16 1.02 16 0 16 C0 10.72 0 5.44 0 0 Z " fill="#545454" transform="translate(349,49)"/>
<path d="M0 0 C0.33 1.32 0.66 2.64 1 4 C4.3 4.33 7.6 4.66 11 5 C11 5.33 11 5.66 11 6 C6.545 6.495 6.545 6.495 2 7 C1.67 8.98 1.34 10.96 1 13 C0.34 13 -0.32 13 -1 13 C-1.0272415 11.58344207 -1.04650467 10.16672955 -1.0625 8.75 C-1.07410156 7.96109375 -1.08570313 7.1721875 -1.09765625 6.359375 C-1.00385306 4.09308998 -0.63241063 2.1711105 0 0 Z " fill="#424242" transform="translate(271,55)"/>
<path d="M0 0 C1.65 0 3.3 0 5 0 C5 1.98 5 3.96 5 6 C4.01 6 3.02 6 2 6 C2 5.01 2 4.02 2 3 C-2.29 3 -6.58 3 -11 3 C-11 2.67 -11 2.34 -11 2 C-5.555 1.505 -5.555 1.505 0 1 C0 0.67 0 0.34 0 0 Z " fill="#4D4D4D" transform="translate(404,59)"/>
<path d="M0 0 C0.66 0 1.32 0 2 0 C2 1.98 2 3.96 2 6 C2.99 6 3.98 6 5 6 C5 7.32 5 8.64 5 10 C4.01 10 3.02 10 2 10 C2 9.01 2 8.02 2 7 C1.01 7 0.02 7 -1 7 C-0.67 4.69 -0.34 2.38 0 0 Z " fill="#6A6A6A" transform="translate(327,59)"/>
<path d="M0 0 C0.99 0 1.98 0 3 0 C3 2.97 3 5.94 3 9 C2.01 9 1.02 9 0 9 C0 6.03 0 3.06 0 0 Z " fill="#565656" transform="translate(289,49)"/>
<path d="M0 0 C0.99 0 1.98 0 3 0 C3 2.97 3 5.94 3 9 C2.01 9 1.02 9 0 9 C0 6.03 0 3.06 0 0 Z " fill="#545454" transform="translate(410,49)"/>
<path d="M0 0 C0.99 0 1.98 0 3 0 C3 0.99 3 1.98 3 3 C3.99 3 4.98 3 6 3 C6 3.99 6 4.98 6 6 C4.68 6 3.36 6 2 6 C2 5.34 2 4.68 2 4 C1.34 4 0.68 4 0 4 C0 2.68 0 1.36 0 0 Z " fill="#838383" transform="translate(430,325)"/>
<path d="M0 0 C0.66 0.33 1.32 0.66 2 1 C1.67 2.65 1.34 4.3 1 6 C1.66 6 2.32 6 3 6 C3 7.32 3 8.64 3 10 C2.01 10 1.02 10 0 10 C0 9.01 0 8.02 0 7 C-0.99 6.67 -1.98 6.34 -3 6 C-2.01 6 -1.02 6 0 6 C0 4.02 0 2.04 0 0 Z " fill="#ADADAD" transform="translate(289,59)"/>
<path d="M0 0 C0.99 0 1.98 0 3 0 C3 0.66 3 1.32 3 2 C3.99 2 4.98 2 6 2 C6 3.32 6 4.64 6 6 C5.01 6 4.02 6 3 6 C3 5.01 3 4.02 3 3 C2.01 3 1.02 3 0 3 C0 2.01 0 1.02 0 0 Z " fill="#757575" transform="translate(169,329)"/>
</svg>
