<?xml version="1.0" encoding="UTF-8"?>
<svg version="1.1" xmlns="http://www.w3.org/2000/svg" width="200" height="200">
<path d="M0 0 C66 0 132 0 200 0 C200 66 200 132 200 200 C134 200 68 200 0 200 C0 134 0 68 0 0 Z " fill="#FDFDFD" transform="translate(0,0)"/>
<path d="M0 0 C66 0 132 0 200 0 C200 66 200 132 200 200 C134 200 68 200 0 200 C0 134 0 68 0 0 Z M41.65635681 19.90979004 C38.87654314 25.35398174 39.45268968 31.48333542 39.49829102 37.44335938 C39.4945034 38.80248066 39.48899972 40.16159807 39.48191833 41.52070618 C39.46800381 45.19642977 39.47910489 48.87168316 39.49562955 52.54738045 C39.50952431 56.40248061 39.50301494 60.2575547 39.49949646 64.1126709 C39.49679782 70.58544451 39.51024 77.05803232 39.53344727 83.53076172 C39.5600549 91.00339142 39.56180285 98.47571057 39.5500589 105.94837141 C39.53926209 113.1506645 39.54548309 120.35284577 39.55961418 127.55513 C39.56535751 130.61398476 39.56530437 133.67275725 39.56054878 136.73161316 C39.55575986 140.33670927 39.56595928 143.94146737 39.58750343 147.54649925 C39.59567944 149.4928819 39.58924009 151.43930894 39.58230591 153.38569641 C39.64143745 160.36517207 39.71378736 166.27060855 44.53515625 171.7421875 C49.35962679 175.32043931 51.46918063 176.12459561 57.46923828 176.11352539 C58.13277313 176.11367142 58.79630798 176.11381744 59.47994995 176.1139679 C61.67677053 176.11327031 63.8735067 176.10548514 66.0703125 176.09765625 C67.59203037 176.09579152 69.11374884 176.09436788 70.63546753 176.09336853 C74.64351047 176.08954767 78.65151726 176.07972104 82.6595459 176.06866455 C86.74828604 176.05844118 90.83703201 176.05386892 94.92578125 176.04882812 C102.95053744 176.0380984 110.97526422 176.02102713 119 176 C119.2897168 176.62632324 119.57943359 177.25264648 119.87792969 177.89794922 C121.27505632 180.51528175 122.77370536 181.51625076 125.25 183.125 C125.99765625 183.62257812 126.7453125 184.12015625 127.515625 184.6328125 C135.75935513 189.16945644 145.8983022 189.33374808 154.984375 187.34765625 C161.03663364 185.15794155 165.52128607 181.55162323 170 177 C170.7425 176.2575 171.485 175.515 172.25 174.75 C177.7638627 166.08535862 179.17822986 157.14720407 178 147 C176.16680618 140.12037375 171.66976958 132.15592202 165.43249512 128.49163818 C162.29230281 125.27509604 162.41119588 123.47498346 162.36997986 119.11813354 C162.38646072 118.19130768 162.40294159 117.26448181 162.41992188 116.30957031 C162.41624352 114.83567337 162.41624352 114.83567337 162.41249084 113.33200073 C162.41031813 111.19852257 162.41961094 109.06500908 162.4389801 106.93161774 C162.4689871 103.55141631 162.46802424 100.17248292 162.4588623 96.79217529 C162.44256018 88.39445364 162.47991939 79.99712023 162.51544189 71.5994873 C162.54341135 64.50809972 162.55105353 57.41725004 162.53187561 50.32582855 C162.53125905 47.00188968 162.56042327 43.6790656 162.59069824 40.35528564 C162.58862271 38.30619103 162.58515575 36.25709719 162.58007812 34.20800781 C162.59655899 33.28927887 162.61303986 32.37054993 162.63002014 31.42398071 C162.57137429 25.14261059 161.24820101 20.73709807 157 16 C152.03382243 12.36296458 147.06524214 12.56675855 141.14257812 12.59594727 C140.1662291 12.58908401 139.18988007 12.58222076 138.1839447 12.57514954 C134.96623064 12.55689282 131.7490046 12.56071713 128.53125 12.56640625 C126.28975262 12.56184431 124.04825664 12.5565387 121.8067627 12.55052185 C117.11281648 12.54159324 112.41904043 12.5440116 107.72509766 12.55395508 C101.71258035 12.56545129 95.70064977 12.54522152 89.68820953 12.51603794 C85.06077348 12.49768605 80.43347833 12.49796631 75.80601501 12.50367546 C73.58926062 12.50382876 71.37249673 12.49777729 69.15577698 12.48538399 C66.05595127 12.4704933 62.95721371 12.48113718 59.85742188 12.49829102 C58.94399521 12.48862305 58.03056854 12.47895508 57.08946228 12.46899414 C49.98814441 12.55121075 46.23058352 14.23058111 41.65635681 19.90979004 Z " fill="#FEFEFE" transform="translate(0,0)"/>
<path d="M0 0 C1.46452354 -0.00810448 1.46452354 -0.00810448 2.95863342 -0.01637268 C6.17650948 -0.02884978 9.39348908 -0.01237515 12.61132812 0.00561523 C14.85282437 0.00546022 17.09432089 0.0039709 19.33581543 0.00120544 C24.02982455 -0.0001781 28.72352795 0.01237244 33.41748047 0.03515625 C39.42993328 0.06354039 45.4418782 0.06080279 51.45436859 0.04806614 C56.08181078 0.04110635 60.70913588 0.04890175 65.33656311 0.06132317 C67.55330455 0.06583472 69.77005858 0.06617706 71.98680115 0.06225777 C75.08651431 0.05934269 78.18553114 0.07586742 81.28515625 0.09765625 C82.65529625 0.09090378 82.65529625 0.09090378 84.05311584 0.08401489 C89.11987205 0.14309656 92.92105967 0.41003296 97.14257812 3.50170898 C102.17410365 9.11161283 102.84450938 14.353927 102.67504883 21.66210938 C102.67268219 22.64689774 102.67031555 23.6316861 102.6678772 24.64631653 C102.66004143 26.77213737 102.64101537 28.89794081 102.61190224 31.02357674 C102.56781146 34.39121509 102.55762515 37.75744042 102.5566864 41.12535095 C102.54792659 50.69529799 102.47786846 60.2645007 102.38647461 69.83398438 C102.33280243 75.6983851 102.31793228 81.56188824 102.32607079 87.42651176 C102.32095342 89.65647567 102.30052707 91.88645995 102.26436806 94.11613655 C102.21403884 97.23536239 102.21275177 100.35116506 102.22192383 103.47070312 C102.18102379 104.84476318 102.18102379 104.84476318 102.13929749 106.24658203 C102.19429355 110.11123755 102.31177339 112.53225771 104.88426781 115.53405571 C106.97304209 117.38364181 106.97304209 117.38364181 109.14418316 118.92638302 C114.05266036 122.79571401 116.4907225 128.61878457 118.14257812 134.50170898 C119.15569484 144.33836545 118.34324762 153.59887247 112.49414062 161.81811523 C110.79711797 163.83008751 109.03933511 165.67857042 107.14257812 167.50170898 C106.37945312 168.24420898 105.61632812 168.98670898 104.83007812 169.75170898 C95.71835921 175.6849213 86.75722204 176.57744332 76.14257812 175.50170898 C69.79448331 173.89436776 63.8675924 170.00785339 59.14257812 165.50170898 C59.14257812 164.84170898 59.14257812 164.18170898 59.14257812 163.50170898 C58.30399261 163.51059143 57.4654071 163.51947388 56.60140991 163.52862549 C48.68605014 163.60888109 40.77082766 163.669729 32.85515404 163.70895767 C28.78590873 163.72980388 24.71700053 163.75806652 20.64794922 163.8034668 C16.71867194 163.84703158 12.78971826 163.8708684 8.86021805 163.88121796 C7.36352064 163.88859036 5.8668403 163.90298719 4.37028122 163.92462921 C2.2684421 163.95380656 0.16792807 163.95765931 -1.93408203 163.95581055 C-3.72611557 163.96913422 -3.72611557 163.96913422 -5.55435181 163.98272705 C-10.66246038 163.23884561 -13.72734973 160.7234086 -17.16992188 157.00170898 C-19.87941101 152.98765101 -19.98441233 149.57096546 -20.0045929 144.79081726 C-20.0117482 143.62586731 -20.0189035 142.46091736 -20.02627563 141.26066589 C-20.02896454 139.98629166 -20.03165344 138.71191742 -20.03442383 137.39892578 C-20.04069186 136.04025093 -20.04733896 134.68157778 -20.05433655 133.32290649 C-20.07533615 128.86559229 -20.08573399 124.4082779 -20.09570312 119.95092773 C-20.09975199 118.41444188 -20.10386895 116.87795621 -20.10805321 115.34147072 C-20.12709461 108.12319288 -20.14132874 100.90492521 -20.14966518 93.68662709 C-20.15943886 85.3620927 -20.18576601 77.03782411 -20.22616607 68.71338338 C-20.25634564 62.27332927 -20.27113572 55.83335131 -20.27444619 49.39322788 C-20.27679426 45.54929567 -20.28572294 41.70564779 -20.31090736 37.86179161 C-20.33422617 34.24441936 -20.33840638 30.62751788 -20.32814598 27.01008987 C-20.3274164 25.05646477 -20.34648 23.10286337 -20.36621094 21.14933777 C-20.32631815 14.40800623 -20.1622041 9.83640398 -15.85742188 4.50170898 C-10.85535326 -0.06780484 -6.43696676 -0.06813069 0 0 Z M-12.85742188 11.50170898 C-13.45868398 14.22152543 -13.45868398 14.22152543 -13.37208557 17.26402283 C-13.38481003 18.44027725 -13.39753448 19.61653168 -13.41064453 20.82843018 C-13.40411865 22.11529724 -13.39759277 23.40216431 -13.39086914 24.72802734 C-13.39792806 26.09980701 -13.40667297 27.47157888 -13.41697693 28.84333801 C-13.43948503 32.56658617 -13.43652799 36.28940954 -13.42765546 40.01269984 C-13.42254616 43.12160427 -13.42983769 46.23042881 -13.43712753 49.33932501 C-13.45413125 56.67404155 -13.4505563 64.00855008 -13.43383789 71.34326172 C-13.41691674 78.90857889 -13.43274947 86.47331906 -13.46506077 94.03857321 C-13.4917575 100.53553693 -13.49903248 107.03232106 -13.49054569 113.52933413 C-13.48561652 117.40898318 -13.48783099 121.28828507 -13.50833321 125.16789055 C-13.52669197 128.81659913 -13.52073066 132.464478 -13.4961338 136.11314201 C-13.48874025 138.08858902 -13.50598015 140.06408018 -13.5239563 142.03945923 C-13.51010308 148.80723773 -13.51010308 148.80723773 -10.70343018 154.80096436 C-7.38814508 156.78214386 -5.53625574 157.10915033 -1.69018555 157.06933594 C-0.46929733 157.06895828 0.75159088 157.06858063 2.00947571 157.06819153 C3.97221687 157.02948189 3.97221687 157.02948189 5.97460938 156.98999023 C7.33508502 156.9806571 8.69557755 156.97354335 10.05607605 156.96855164 C13.6255893 156.94952029 17.19407466 156.90045579 20.76318359 156.84503174 C24.4096893 156.79375402 28.05636217 156.7710196 31.703125 156.74584961 C38.85002822 156.69233112 45.99623584 156.60706716 53.14257812 156.50170898 C52.98249268 155.42123291 52.82240723 154.34075684 52.6574707 153.22753906 C51.0832192 141.8360492 51.13354317 131.69209787 57.83789062 122.06811523 C63.45487251 115.14353635 70.2941303 110.88674888 79.14257812 109.50170898 C81.92333297 109.43361998 84.67622552 109.40692562 87.45507812 109.43920898 C88.19564453 109.4437207 88.93621094 109.44823242 89.69921875 109.45288086 C91.51370711 109.46458724 93.32815347 109.48252 95.14257812 109.50170898 C95.23519044 96.79324138 95.30629874 84.08485383 95.34982681 71.37611771 C95.37071637 65.47515203 95.39905944 59.57441694 95.44433594 53.67358398 C95.4877442 47.98071776 95.51170492 42.28807356 95.5220871 36.59505463 C95.52948744 34.4212774 95.54393831 32.24751255 95.56549835 30.07382965 C95.59446511 27.03291911 95.59853688 23.99293023 95.59667969 20.9519043 C95.61106079 20.04991302 95.62544189 19.14792175 95.64025879 18.21859741 C95.61603672 14.56199653 95.51521743 12.16825515 93.71234131 8.94342041 C89.74649937 6.71846845 86.04867085 6.94449309 81.57226562 6.98413086 C80.60274963 6.97712158 79.63323364 6.9701123 78.63433838 6.96289062 C75.42846058 6.94528044 72.22346496 6.95694446 69.01757812 6.97045898 C66.79085114 6.96776495 64.5641253 6.96388327 62.33740234 6.9588623 C57.67013348 6.95296314 53.00317078 6.96154395 48.3359375 6.98022461 C42.35004304 7.00301406 36.36486594 6.98989327 30.3789978 6.96593475 C25.78078801 6.95148828 21.18274859 6.95607755 16.58453369 6.96644592 C14.37729813 6.96911638 12.17004715 6.96583231 9.96282959 6.95652771 C6.87909911 6.94638136 3.79653417 6.96183714 0.71289062 6.98413086 C-0.20151794 6.97603394 -1.11592651 6.96793701 -2.05804443 6.95959473 C-3.31974457 6.97651367 -3.31974457 6.97651367 -4.60693359 6.99377441 C-5.33548553 6.99528252 -6.06403748 6.99679062 -6.81466675 6.99834442 C-9.82268865 7.73956475 -11.00165442 9.05566328 -12.85742188 11.50170898 Z " fill="#070707" transform="translate(59.857421875,12.498291015625)"/>
<path d="M0 0 C5.57623802 4.36137135 9.58091819 10.73246862 10.91796875 17.71484375 C11.79006621 25.99262133 10.18732274 32.15878856 5.33984375 38.9140625 C0.15000979 45.23771154 -5.47141646 49.1389742 -13.74609375 49.98828125 C-22.80602744 50.29904415 -28.90038554 48.15308578 -35.89453125 42.40234375 C-42.62810258 34.1296704 -45.10382264 27.45825042 -44.08203125 16.71484375 C-42.12082559 9.34260077 -37.42566822 2.52399962 -30.9921875 -1.63671875 C-20.42256597 -7.10851537 -10.14808634 -6.26401577 0 0 Z " fill="#F8F8F8" transform="translate(161.08203125,132.28515625)"/>
<path d="M0 0 C0.70909012 -0.00350464 1.41818024 -0.00700928 2.14875793 -0.01062012 C4.49835937 -0.01944014 6.84766099 -0.01358746 9.19726562 -0.00683594 C10.82629454 -0.00818251 12.45532305 -0.01012298 14.08435059 -0.01263428 C17.50077129 -0.0155859 20.91708752 -0.0112867 24.33349609 -0.00195312 C28.71868964 0.00944148 33.10363838 0.00288221 37.48882294 -0.00909805 C40.85335138 -0.01631564 44.21782152 -0.0140292 47.58235168 -0.00884247 C49.1995293 -0.00750569 50.81671217 -0.00915468 52.43388367 -0.01380157 C54.69174272 -0.01886522 56.94920206 -0.0111592 59.20703125 0 C61.13657654 0.00238678 61.13657654 0.00238678 63.10510254 0.00482178 C66.10351562 0.25878906 66.10351562 0.25878906 68.10351562 2.25878906 C67.56780134 5.79450335 67.56780134 5.79450335 66.10351562 7.25878906 C63.80297727 7.35322242 61.49949389 7.37621035 59.19702148 7.37231445 C58.47511124 7.37246048 57.75320099 7.37260651 57.00941467 7.37275696 C54.61236615 7.37205775 52.2153944 7.36426501 49.81835938 7.35644531 C48.16069074 7.35458116 46.50302155 7.35315724 44.84535217 7.35215759 C40.47397348 7.34833219 36.10262781 7.33850172 31.73126221 7.32745361 C27.27397102 7.31723998 22.81667451 7.31266008 18.359375 7.30761719 C9.60740669 7.29687946 0.85546526 7.27980278 -7.89648438 7.25878906 C-8.52148438 4.88378906 -8.52148438 4.88378906 -8.89648438 2.25878906 C-6.02463171 -0.6130636 -4.02156793 0.00497454 0 0 Z " fill="#0C0C0C" transform="translate(69.896484375,101.7412109375)"/>
<path d="M0 0 C1.32 0.33 2.64 0.66 4 1 C4 7.27 4 13.54 4 20 C9.94 20 15.88 20 22 20 C22.495 22.475 22.495 22.475 23 25 C22 26 22 26 20.23413086 26.11352539 C19.48526611 26.10828857 18.73640137 26.10305176 17.96484375 26.09765625 C16.87224243 26.09390991 16.87224243 26.09390991 15.75756836 26.09008789 C14.8269458 26.08098389 13.89632324 26.07187988 12.9375 26.0625 C8.5134375 26.0315625 8.5134375 26.0315625 4 26 C4 31.94 4 37.88 4 44 C2.02 44.495 2.02 44.495 0 45 C-1 44 -1 44 -1.11352539 42.23413086 C-1.10828857 41.48526611 -1.10305176 40.73640137 -1.09765625 39.96484375 C-1.09443359 39.15595703 -1.09121094 38.34707031 -1.08789062 37.51367188 C-1.07951172 36.66353516 -1.07113281 35.81339844 -1.0625 34.9375 C-1.05798828 34.08349609 -1.05347656 33.22949219 -1.04882812 32.34960938 C-1.03700373 30.23304337 -1.01906769 28.11651315 -1 26 C-2.27617187 26.02320313 -3.55234375 26.04640625 -4.8671875 26.0703125 C-6.5364525 26.08906829 -8.2057238 26.10726869 -9.875 26.125 C-11.13763672 26.15013672 -11.13763672 26.15013672 -12.42578125 26.17578125 C-13.63427734 26.18544922 -13.63427734 26.18544922 -14.8671875 26.1953125 C-15.61081543 26.20578613 -16.35444336 26.21625977 -17.12060547 26.22705078 C-19 26 -19 26 -21 24 C-20.67 22.68 -20.34 21.36 -20 20 C-13.73 20 -7.46 20 -1 20 C-1.03958027 13.79207086 -1.03958027 13.79207086 -1.09008789 7.58422852 C-1.09258545 6.81522217 -1.09508301 6.04621582 -1.09765625 5.25390625 C-1.10551147 4.06776733 -1.10551147 4.06776733 -1.11352539 2.85766602 C-1 1 -1 1 0 0 Z " fill="#090909" transform="translate(143,132)"/>
<path d="M0 0 C1.02814316 0.00222061 2.05628632 0.00444122 3.11558533 0.00672913 C4.85727745 0.00684242 4.85727745 0.00684242 6.63415527 0.00695801 C8.52943214 0.01469994 8.52943214 0.01469994 10.46299744 0.02259827 C12.39193092 0.02472069 12.39193092 0.02472069 14.35983276 0.02688599 C17.78427561 0.03071034 21.20867628 0.0405399 24.63310242 0.05158997 C28.12522308 0.06180587 31.61735053 0.06638399 35.10948181 0.07142639 C41.96561897 0.08216225 48.82172806 0.09923767 55.67784119 0.12025452 C56.06002886 1.77640109 56.3917922 3.44482476 56.67784119 5.12025452 C55.67784119 6.12025452 55.67784119 6.12025452 53.35568237 6.24050903 C52.32753922 6.23828842 51.29939606 6.23606781 50.24009705 6.23377991 C48.49840492 6.23366661 48.49840492 6.23366661 46.7215271 6.23355103 C44.82625023 6.2258091 44.82625023 6.2258091 42.89268494 6.21791077 C41.60672928 6.21649582 40.32077362 6.21508087 38.99584961 6.21362305 C35.57140676 6.2097987 32.1470061 6.19996914 28.72257996 6.18891907 C25.2304593 6.17870316 21.73833184 6.17412504 18.24620056 6.16908264 C11.3900634 6.15834678 4.53395432 6.14127136 -2.32215881 6.12025452 C-2.70434648 4.46410794 -3.03610983 2.79568427 -3.32215881 1.12025452 C-2.32215881 0.12025452 -2.32215881 0.12025452 0 0 Z " fill="#000000" transform="translate(64.32215881347656,89.87974548339844)"/>
<path d="M0 0 C0.9024646 -0.00095673 1.8049292 -0.00191345 2.73474121 -0.00289917 C4.64461334 -0.00358029 6.55448778 -0.00173071 8.46435547 0.00244141 C11.39425843 0.00779061 14.32400808 0.00249413 17.25390625 -0.00390625 C19.10677117 -0.00324546 20.959636 -0.00196427 22.8125 0 C24.13284241 -0.00303635 24.13284241 -0.00303635 25.4798584 -0.00613403 C31.6763334 0.0178542 31.6763334 0.0178542 33.90625 1.1328125 C33.90625 2.7828125 33.90625 4.4328125 33.90625 6.1328125 C30.48713664 7.84236918 26.57389905 7.27427496 22.8125 7.265625 C21.9100354 7.26658173 21.0075708 7.26753845 20.07775879 7.26852417 C18.16788666 7.26920529 16.25801222 7.26735571 14.34814453 7.26318359 C11.41824157 7.25783439 8.48849192 7.26313087 5.55859375 7.26953125 C3.70572883 7.26887046 1.852864 7.26758927 0 7.265625 C-1.32034241 7.26866135 -1.32034241 7.26866135 -2.6673584 7.27175903 C-8.8638334 7.2477708 -8.8638334 7.2477708 -11.09375 6.1328125 C-11.09375 4.4828125 -11.09375 2.8328125 -11.09375 1.1328125 C-7.67463664 -0.57674418 -3.76139905 -0.00864996 0 0 Z " fill="#010101" transform="translate(72.09375,76.8671875)"/>
</svg>
